<?xml version="1.0" encoding="utf-8"?>
<svg viewBox="25.641 13.889 393.162 189.103" xmlns="http://www.w3.org/2000/svg" xmlns:xlink="http://www.w3.org/1999/xlink">
  <path transform="scale(0.66 0.66) translate(115 55)" style="fill: rgb(255, 255, 255); paint-order: fill;" d="M 35.791 20.833 L 79.594 20.833 L 77.457 96.688 L 95.62 20.833 L 135.15 19.765 L 94.551 130.876 C 94.551 130.876 115.385 139.957 125.534 113.248 C 135.683 86.539 123.932 191.774 123.932 191.774 L 94.551 190.705 C 94.551 190.705 84.936 199.786 77.457 143.162 C 69.978 86.538 75.855 190.171 75.855 190.171 L 31.517 190.705 C 31.517 190.705 36.859 96.688 35.791 20.833 Z"/>
  <path transform="scale(0.66 0.66) translate(115 55)" style="fill: rgb(255, 255, 255);" d="M 139.423 22.97 L 182.158 21.902 C 182.158 21.902 172.547 181.246 177.35 191.239 C 182.153 201.232 136.802 170.606 137.286 190.705 C 137.286 190.705 143.162 98.825 139.423 22.97 Z"/>
  <path transform="scale(0.66 0.66) translate(115 55)" style="fill: rgb(255, 255, 255);" d="M 191.239 20.299 C 191.239 20.299 186.972 178.086 190.705 191.239 C 194.438 204.392 248.652 182.53 242.521 190.705 L 238.782 129.808 L 230.769 133.013 L 232.906 55.021 L 241.453 59.829 L 237.179 21.368 C 237.179 21.368 202.457 18.697 191.239 20.299 Z"/>
  <path transform="scale(0.66 0.66) translate(115 55)" style="fill: rgb(255, 255, 255);" d="M 237.179 130.876 L 241.453 191.239 L 275.107 179.487 C 275.107 179.487 295.406 157.585 295.406 133.547 C 295.406 109.509 298.611 114.316 293.269 72.65 C 287.927 30.984 255.342 24.038 255.342 24.038 L 235.577 21.368 L 240.919 60.363 L 252.137 96.154 C 255.698 99.715 247.685 127.493 244.124 123.932 L 237.179 130.876 Z"/>
  <path transform="scale(0.66 0.66) translate(115 55)" style="fill: rgb(255, 255, 255);" d="M 403.312 22.97 C 403.312 22.97 357.906 11.218 324.786 23.504 C 291.666 35.79 303.953 91.88 302.885 91.88 C 301.817 91.88 316.774 116.987 341.346 115.385 C 365.918 113.783 374.466 113.782 374.466 113.782 C 374.466 113.782 386.218 118.056 384.081 122.329 C 381.944 126.602 368.056 131.944 350.962 128.205 C 333.868 124.466 319.979 123.932 308.226 112.179 C 296.473 100.426 304.487 107.906 304.487 107.906 L 302.885 182.692 C 302.885 182.692 332.265 200.321 356.838 196.581 C 381.411 192.841 393.697 192.842 404.38 171.474 C 415.063 150.106 413.462 122.329 413.462 121.795 C 413.462 121.261 413.462 104.701 393.697 94.551 C 373.932 84.401 370.726 84.402 357.906 83.868 C 345.086 83.334 353.098 82.799 353.098 82.799 C 353.098 82.799 326.389 91.346 338.675 77.991 C 350.961 64.636 357.372 72.115 357.372 72.115 C 357.372 72.115 397.436 79.06 401.175 84.402 C 404.914 89.744 405.449 79.594 405.449 79.594 L 403.312 22.97 Z"/>
</svg>
